<?xml version="1.0" encoding="UTF-8"?>
<svg width="1200px" height="675px" viewBox="0 0 1200 675" version="1.1" xmlns="http://www.w3.org/2000/svg" xmlns:xlink="http://www.w3.org/1999/xlink">
    <!-- Generator: Sketch 52.6 (67491) - http://www.bohemiancoding.com/sketch -->
    <title>Group 45</title>
    <desc>Created with Sketch.</desc>
    <defs>
        <polygon id="path-1" points="6.85908153 -2.76377659 14.2338333 4.40831395 46.3744739 4.40901935 46.3744739 45.830227 10.9262571 45.830227 10.9262571 25.9852133 15.6761378 25.9852133 15.6746305 40.8589767 41.623229 40.8589767 41.623229 9.37885887 12.3679973 9.37956427 3.62553667 0.87716443"></polygon>
        <filter x="-16.4%" y="-10.3%" width="132.7%" height="128.8%" filterUnits="objectBoundingBox" id="filter-2">
            <feOffset dx="0" dy="2" in="SourceAlpha" result="shadowOffsetOuter1"></feOffset>
            <feGaussianBlur stdDeviation="2" in="shadowOffsetOuter1" result="shadowBlurOuter1"></feGaussianBlur>
            <feColorMatrix values="0 0 0 0 0   0 0 0 0 0   0 0 0 0 0  0 0 0 0.5 0" type="matrix" in="shadowBlurOuter1"></feColorMatrix>
        </filter>
    </defs>
    <g id="Page-1" stroke="none" stroke-width="1" fill="none" fill-rule="evenodd">
        <g id="Group-45">
            <rect id="Rectangle-3-Copy-3" stroke="#979797" fill="#FFFFFF" x="0.5" y="0.5" width="1199" height="674"></rect>
            <rect id="Rectangle-Copy-14" fill="#DFE0E2" opacity="0.127092634" x="83" y="59" width="1117" height="122"></rect>
            <g id="Group-25-Copy-2" transform="translate(857.000000, 124.000000)" fill="#05CDC6">
                <path d="M14.55973,6.97972415 L14.55973,19.80644 C14.55973,23.1201485 11.8734385,25.80644 8.55972995,25.80644 C5.24602145,25.80644 2.55972995,23.1201485 2.55972995,19.80644 L2.55972995,6.8081175 L0.559729953,0.806439998 L16.55973,0.806439998 L14.55973,6.97972415 Z" id="Combined-Shape"></path>
            </g>
            <g id="Group-21-Copy-2" transform="translate(242.000000, 130.000000)" font-size="12" letter-spacing="0.3">
                <text id="1" font-family="Montserrat-Black, Montserrat" font-weight="700" fill="#05CDC6">
                    <tspan x="0" y="12">1</tspan>
                </text>
                <text id="Choose-category" font-family="Montserrat-Light, Montserrat" font-weight="300" fill="#071013">
                    <tspan x="15" y="12">Choose category</tspan>
                </text>
            </g>
            <g id="Group-20-Copy-2" transform="translate(582.000000, 130.000000)" font-size="12" letter-spacing="0.3">
                <text id="2" font-family="Montserrat-Black, Montserrat" font-weight="700" fill="#05CDC6">
                    <tspan x="0" y="12">2</tspan>
                </text>
                <text id="Choose-skillset" font-family="Montserrat-Light, Montserrat" font-weight="300" fill="#071013">
                    <tspan x="15" y="12">Choose skillset</tspan>
                </text>
            </g>
            <g id="Group-19-Copy-2" transform="translate(890.000000, 130.000000)" font-size="12" letter-spacing="0.3">
                <text id="3" font-family="Montserrat-Black, Montserrat" font-weight="700" fill="#05CDC6">
                    <tspan x="0" y="12">3</tspan>
                </text>
                <text id="Create/Choose-Test" font-family="Montserrat-Light, Montserrat" font-weight="300" fill="#071013">
                    <tspan x="15" y="12">Create/Choose Test</tspan>
                </text>
            </g>
            <rect id="Rectangle-7-Copy-2" fill="#071013" x="0" y="0" width="1200" height="59"></rect>
            <circle id="Oval-4-Copy-2" fill="#05CDC6" cx="1025" cy="30" r="5"></circle>
            <g id="Group-12-Copy-5">
                <rect id="Rectangle-Copy-7" fill="#D8D8D8" x="0" y="0" width="83" height="59"></rect>
                <g id="Group-11" transform="translate(19.000000, 7.000000)">
                    <g id="Rectangle-Copy-5" fill-rule="nonzero" transform="translate(25.000005, 21.533225) rotate(-270.000000) translate(-25.000005, -21.533225) ">
                        <use fill="black" fill-opacity="1" filter="url(#filter-2)" xlink:href="#path-1"></use>
                        <use fill="#071013" xlink:href="#path-1"></use>
                    </g>
                    <ellipse id="Oval-Copy-7" fill="#071013" cx="14.5429206" cy="30.7452135" rx="4.74988074" ry="4.97054492"></ellipse>
                </g>
            </g>
            <circle id="Oval-3-Copy-2" fill="#05CDC6" cx="1062" cy="29" r="16"></circle>
            <text id="AG-Copy-2" font-family="Montserrat-Bold, Montserrat" font-size="14" font-weight="bold" fill="#071013">
                <tspan x="1051" y="34">AG</tspan>
            </text>
            <text id="2-copy-2" font-family="Helvetica" font-size="12" font-weight="normal" letter-spacing="0.3" fill="#FF5151">
                <tspan x="1031" y="26">2</tspan>
            </text>
            <text id="A-quick-guide-for-yo-Copy-2" opacity="0.595796131" font-family="Montserrat-Light, Montserrat" font-size="12" font-weight="300" letter-spacing="0.3" fill="#071013">
                <tspan x="536" y="82">A quick guide for your success.</tspan>
            </text>
            <text id="Pick-a-Category-Copy" opacity="0.483314732" font-family="Montserrat-Light, Montserrat" font-size="24" font-weight="300" letter-spacing="0.6" fill="#FF5151">
                <tspan x="535" y="220">Pick a Category</tspan>
            </text>
            <rect id="Rectangle-20-Copy-15" stroke="#A2AEBB" opacity="0.206240699" x="283.5" y="254.5" width="193" height="136" rx="68"></rect>
            <rect id="Rectangle-20-Copy-16" stroke="#52575B" x="283.5" y="414.5" width="193" height="48" rx="24"></rect>
            <text id="UI-Design/Graphic" font-family="Montserrat-Light, Montserrat" font-size="12" font-weight="300" letter-spacing="0.3" fill="#071013">
                <tspan x="320" y="443">UI Design/Graphic</tspan>
            </text>
            <text id="UX-Design" font-family="Montserrat-Bold, Montserrat" font-size="12" font-weight="bold" letter-spacing="0.3" fill="#071013">
                <tspan x="600" y="443">UX Design</tspan>
            </text>
            <text id="UI/UX-Design-(-Combi" font-family="Montserrat-Light, Montserrat" font-size="12" font-weight="300" letter-spacing="0.3" fill="#071013">
                <tspan x="805" y="443">UI/UX Design ( Combined)</tspan>
            </text>
            <rect id="Rectangle-20-Copy-19" stroke="#05CDC6" x="536.5" y="414.5" width="193" height="48" rx="24"></rect>
            <rect id="Rectangle-20-Copy-22" stroke="#52575B" x="789.5" y="414.5" width="193" height="48" rx="24"></rect>
            <rect id="Rectangle-20-Copy-25" stroke="#05CDC6" stroke-width="3" x="537.5" y="255.5" width="191" height="134" rx="67"></rect>
            <rect id="Rectangle-20-Copy-26" stroke="#A2AEBB" opacity="0.206240699" x="789.5" y="254.5" width="193" height="136" rx="68"></rect>
            <rect id="Rectangle-21-Copy-2" fill="#071013" x="0" y="59" width="83" height="616"></rect>
            <text id="?-copy-2" opacity="0.437151228" font-family="Roboto-Bold, Roboto" font-size="24" font-weight="bold" letter-spacing="0.6" fill="#FFFFFF">
                <tspan x="35" y="649">?</tspan>
            </text>
            <g id="Group-9-Copy-2" transform="translate(31.500000, 150.500000)" fill="#05CDC6">
                <path d="M0.5,0.5 L16.5,0.5 L16.5,16.5 L0.5,16.5 L0.5,0.5 Z M4.30952381,5.07142857 L4.30952381,6.5952381 L12.6904762,6.5952381 L12.6904762,5.07142857 L4.30952381,5.07142857 Z M4.30952381,8.11904762 L4.30952381,9.64285714 L12.6904762,9.64285714 L12.6904762,8.11904762 L4.30952381,8.11904762 Z M4.30952381,11.1666667 L4.30952381,12.6904762 L12.6904762,12.6904762 L12.6904762,11.1666667 L4.30952381,11.1666667 Z" id="Combined-Shape"></path>
            </g>
            <text id="Engineering-Copy-2" opacity="0.206240699" font-family="Montserrat-Medium, Montserrat" font-size="16" font-weight="400" letter-spacing="0.4" fill="#071013">
                <tspan x="329" y="328">Engineering</tspan>
            </text>
            <text id="Design-Copy-4" font-family="Montserrat-Bold, Montserrat" font-size="16" font-weight="bold" letter-spacing="0.4" fill="#071013">
                <tspan x="603" y="328">Design</tspan>
            </text>
            <text id="Other-Copy-2" opacity="0.206240699" font-family="Montserrat-Medium, Montserrat" font-size="16" font-weight="400" letter-spacing="0.4" fill="#071013">
                <tspan x="862" y="328">Other</tspan>
            </text>
            <g id="Group-15-Copy-2" transform="translate(31.000000, 104.500000)" fill="#05CDC6">
                <rect id="Rectangle" x="2" y="5.5" width="12" height="9"></rect>
                <polygon id="Triangle" points="8 0.5 16 6.5 0 6.5"></polygon>
            </g>
            <g id="Group-18-Copy-4" transform="translate(31.000000, 204.000000)">
                <g id="Group-17">
                    <path d="M4.14546682,3.08607182 L8.70260968,2.92892897 L8.43832397,10.5932147 L8.37249824,12.7944248 C8.33417151,14.0760695 7.30723364,15.1077151 6.02577762,15.1519032 L6.02577762,15.1519032 C4.84926424,15.1924726 3.86262368,14.2716081 3.82205426,13.0950947 C3.8204074,13.047336 3.82036708,12.9995353 3.82193336,12.9517739 L4.14546682,3.08607182 Z" id="Rectangle" fill="#05CDC6" transform="translate(6.224908, 9.079702) rotate(-315.000000) translate(-6.224908, -9.079702) "></path>
                    <path d="M5.86608827,0.897906319 L5.43217066,13.4815169 C5.43088134,13.5189072 5.43088134,13.5563309 5.43217066,13.5937212 C5.46315505,14.4922685 6.2166893,15.1955671 7.11523652,15.1645827 C8.13565853,15.1293957 8.95472055,14.3103337 8.98990752,13.2899117 L9.42144559,0.77530779 L5.86608827,0.897906319 Z" id="Rectangle" stroke="#05CDC6" transform="translate(7.396753, 8.000000) rotate(-315.000000) translate(-7.396753, -8.000000) "></path>
                </g>
                <path d="M15.8581402,8.18354723 C15.8919998,8.25127527 15.920449,8.32334331 15.9427709,8.39889091 L15.9432068,8.4 C15.9799486,8.52511157 16,8.65974583 16,8.8 C16,9.4627417 15.5522847,10 15,10 C14.4477153,10 14,9.4627417 14,8.8 C14,8.65974583 14.0200514,8.52511157 14.0569019,8.4 L14.0537072,8.4 L14.0687752,8.36178435 C14.0853236,8.31118438 14.1046534,8.26226062 14.1265386,8.215284 L15,6 L15.8581402,8.18354723 Z" id="Combined-Shape" fill="#05CDC6"></path>
            </g>
            <g id="Group-18-Copy-5" transform="translate(853.186549, 105.212024) rotate(29.000000) translate(-853.186549, -105.212024) translate(840.686549, 95.212024)">
                <g id="Group-17">
                    <path d="M6.51747243,4.33529881 L12.2859535,0.693958064 L11.8567581,13.7460131 L11.7555903,16.5162445 C11.6964689,18.1351393 10.4015894,19.4359492 8.78298159,19.5024674 L8.78298159,19.5024674 C7.32168148,19.5625208 6.08838076,18.4265859 6.02832733,16.9652858 C6.02541062,16.8943126 6.02535073,16.8232508 6.02814782,16.7522728 L6.51747243,4.33529881 Z" id="Rectangle" fill="#05CDC6" transform="translate(9.100539, 10.157141) rotate(-315.000000) translate(-9.100539, -10.157141) "></path>
                    <path d="M7.37846091,0.95209711 L6.72237069,16.9169592 C6.71996014,16.9756158 6.71996014,17.0343466 6.72237069,17.0930032 C6.77098391,18.2759248 7.76934014,19.1954635 8.95226176,19.1468503 C10.3128226,19.0909368 11.4030149,18.0007446 11.4589283,16.6401837 L12.111638,0.757582985 L7.37846091,0.95209711 Z" id="Rectangle" stroke="#05CDC6" transform="translate(9.369221, 10.000000) rotate(-315.000000) translate(-9.369221, -10.000000) "></path>
                </g>
                <path d="M23.1371702,9.94934142 C23.1879595,10.0340015 23.2306334,10.1240865 23.2641162,10.218521 L23.26477,10.2199074 C23.3198827,10.3762968 23.3499598,10.5445897 23.3499598,10.7199074 C23.3499598,11.5483345 22.678387,12.2199074 21.8499598,12.2199074 C21.0215327,12.2199074 20.3499598,11.5483345 20.3499598,10.7199074 C20.3499598,10.5445897 20.3800369,10.3762968 20.4353127,10.2199074 L20.4305206,10.2199074 L20.4531226,10.1721378 C20.4779453,10.1088879 20.5069399,10.0477331 20.5397677,9.98901237 L21.8499598,7.21990738 L23.1371702,9.94934142 Z" id="Combined-Shape" fill="#05CDC6" transform="translate(21.849960, 9.719907) rotate(-29.000000) translate(-21.849960, -9.719907) "></path>
            </g>
            <g id="Group-22-Copy-2" transform="translate(1183.500000, 71.500000) rotate(-315.000000) translate(-1183.500000, -71.500000) translate(1179.000000, 67.000000)" fill="#D8D8D8" stroke="#979797">
                <rect id="Rectangle" x="4.5" y="0.5" width="1" height="8"></rect>
                <rect id="Rectangle" transform="translate(4.500000, 4.500000) rotate(-90.000000) translate(-4.500000, -4.500000) " x="4.5" y="0.5" width="1" height="8"></rect>
            </g>
            <g id="Group-24-Copy-2" transform="translate(143.000000, 96.000000)">
                <circle id="Oval" fill="#05CDC6" cx="48" cy="11" r="11"></circle>
                <circle id="Oval-Copy-31" fill="#05CDC6" cx="19" cy="33" r="6"></circle>
                <circle id="Oval" fill="#05CDC6" cx="4" cy="51" r="4"></circle>
                <circle id="Oval-Copy-34" fill="#05CDC6" cx="25" cy="55" r="4"></circle>
                <circle id="Oval-Copy-32" fill="#05CDC6" cx="48" cy="45" r="6"></circle>
                <circle id="Oval-Copy-33" fill="#05CDC6" cx="78" cy="35" r="6"></circle>
                <path d="M23,30 L43,14" id="Path-10" stroke="#05CDC6" stroke-width="0.2"></path>
                <path d="M48,41 L48,14" id="Path-11" stroke="#05CDC6" stroke-width="0.2"></path>
                <path d="M76,34 L52,12" id="Path-12" stroke="#05CDC6" stroke-width="0.2"></path>
                <path d="M4,49.5 L16.9120749,35" id="Path-13" stroke="#05CDC6" stroke-width="0.2"></path>
                <path d="M25,52.9316923 L19,35" id="Path-14" stroke="#05CDC6" stroke-width="0.2"></path>
            </g>
            <g id="Group-26-Copy-2" transform="translate(499.000000, 102.000000)">
                <rect id="Rectangle" fill="#05CDC6" x="28" y="0" width="12" height="11"></rect>
                <path d="M28,27.2898787 L28,24 L40,24 L40,28.3333333 L48,39 L34.8989827,39 C33.6364456,40.237187 31.9073051,41 30,41 C26.1340068,41 23,37.8659932 23,34 C23,30.8289794 25.1085111,28.1504279 28,27.2898787 Z" id="Combined-Shape" fill="#05CDC6"></path>
                <polygon id="Triangle" fill="#05CDC6" points="63 36 72 48 54 48"></polygon>
                <circle id="Oval" fill="#05CDC6" cx="7" cy="42" r="7"></circle>
                <path d="M9.15139855,42 L28,35.5" id="Path-15" stroke="#05CDC6" stroke-width="0.2"></path>
                <path d="M34,7.71415721 L34,27" id="Path-16" stroke="#05CDC6" stroke-width="0.2"></path>
                <path d="M61.4296034,43 L39,35" id="Path-17" stroke="#05CDC6" stroke-width="0.2"></path>
            </g>
            <rect id="Rectangle-Copy-15" fill="#05CDC6" x="866" y="102" width="8" height="7"></rect>
            <polygon id="Triangle-Copy-5" fill="#05CDC6" points="864.5 114 870 121 859 121"></polygon>
            <circle id="Oval-Copy-38" fill="#05CDC6" cx="873" cy="115" r="4"></circle>
        </g>
    </g>
</svg>