<?xml version="1.0" encoding="UTF-8"?>
<svg width="144px" height="26px" viewBox="0 0 144 26" version="1.1" xmlns="http://www.w3.org/2000/svg" xmlns:xlink="http://www.w3.org/1999/xlink">
    <title>Group 13 Copy 3</title>
    <g id="Page-1" stroke="none" stroke-width="1" fill="none" fill-rule="evenodd">
        <g id="Group-63" transform="translate(-102.000000, -22.000000)">
            <g id="Group-60">
                <g id="Group-56-Copy">
                    <g id="Group-13-Copy-3" transform="translate(104.000000, 23.000000)">
                        <g id="Group-10-Copy-17">
                            <path d="M33.7779801,24 C35.0931536,24 36.2096811,23.8006139 37.1275625,23.4018416 C38.045444,23.0030694 38.7338551,22.4633517 39.1927959,21.7826888 C39.6517366,21.1020258 39.881207,20.3491713 39.881207,19.5241252 C39.881207,18.5615715 39.631187,17.7984039 39.1311471,17.2346225 C38.6311072,16.670841 38.0317443,16.258318 37.3330584,15.9970534 C36.6343725,15.7357888 35.7370406,15.4745242 34.6410627,15.2132597 C33.586184,14.9794966 32.8018748,14.7422959 32.2881352,14.5016575 C31.7743956,14.261019 31.5175257,13.893186 31.5175257,13.3981584 C31.5175257,12.9031308 31.7401462,12.5043585 32.1853873,12.2018416 C32.6306283,11.8993247 33.3190394,11.7480663 34.2506206,11.7480663 C35.5794938,11.7480663 36.908367,12.1262124 38.2372401,12.8825046 L38.2372401,12.8825046 L39.2647194,10.345488 C38.6071327,9.93296501 37.8399482,9.61669736 36.9631658,9.39668508 C36.0863835,9.17667281 35.1890516,9.06666667 34.2711702,9.06666667 C32.9559967,9.06666667 31.8428942,9.26605279 30.9318626,9.66482505 C30.0208309,10.0635973 29.3392697,10.6033149 28.8871788,11.2839779 C28.4350879,11.9646409 28.2090425,12.7243708 28.2090425,13.5631676 C28.2090425,14.5257213 28.4590625,15.2957643 28.9591024,15.8732965 C29.4591423,16.4508287 30.0585052,16.8702271 30.7571911,17.1314917 C31.455877,17.3927563 32.3532089,17.6540209 33.4491868,17.9152855 C34.1615724,18.0802947 34.726686,18.2315531 35.1445275,18.3690608 C35.5623691,18.5065684 35.9048622,18.6887661 36.1720068,18.9156538 C36.4391514,19.1425414 36.5727237,19.4278699 36.5727237,19.771639 C36.5727237,20.2391651 36.3466783,20.6138735 35.8945874,20.8957643 C35.4424965,21.177655 34.7438106,21.3186004 33.7985297,21.3186004 C32.9491469,21.3186004 32.099764,21.1810927 31.2503811,20.9060773 C30.4009983,20.631062 29.6680631,20.2666667 29.0515755,19.8128913 L29.0515755,19.8128913 L27.9213483,22.3292818 C28.5652353,22.8243094 29.4180431,23.2265193 30.4797717,23.5359116 C31.5415003,23.8453039 32.6409031,24 33.7779801,24 Z M45.803442,24 L45.803442,21.0704403 L47.3237631,19.4880503 L50.769824,24 L54.601033,24 L49.654922,17.3710692 L54.195614,12.4955975 L50.4252179,12.4955975 L45.803442,17.1144654 L45.803442,8.13333333 L42.6411743,8.13333333 L42.6411743,24 L45.803442,24 Z M57.3610004,10.9333333 C57.904774,10.9333333 58.3473805,10.7509579 58.6888197,10.3862069 C59.030259,10.0214559 59.2009786,9.56015326 59.2009786,9.00229885 C59.2009786,8.48735632 59.030259,8.05823755 58.6888197,7.71494253 C58.3473805,7.37164751 57.904774,7.2 57.3610004,7.2 C56.8172267,7.2 56.3746203,7.37879949 56.033181,7.73639847 C55.6917417,8.09399745 55.5210221,8.53742018 55.5210221,9.06666667 C55.5210221,9.59591315 55.6917417,10.0393359 56.033181,10.3969349 C56.3746203,10.7545338 56.8172267,10.9333333 57.3610004,10.9333333 Z M59.2009786,24 L59.2009786,12.8 L55.5210221,12.8 L55.5210221,24 L59.2009786,24 Z M65.6409025,24 L65.6409025,8.13333333 L61.960946,8.13333333 L61.960946,24 L65.6409025,24 Z M72.0808264,24 L72.0808264,8.13333333 L68.4008699,8.13333333 L68.4008699,24 L72.0808264,24 Z M78.3426122,24 L79.6505204,20.8 L86.5064903,20.8 L87.8143984,24 L91.400598,24 L84.7977716,9.06666667 L81.4225249,9.06666667 L74.8407938,24 L78.3426122,24 Z M84.9606742,18.4 L80.3607285,18.4 L82.6607013,12.8 L84.9606742,18.4 Z M96.2271751,24 L96.2271751,15.4108444 L98.9332895,15.4108444 L98.9332895,12.8721778 L96.1463956,12.8721778 L96.1463956,12.3856 C96.1463956,11.2855111 96.6243412,10.7354667 97.5802323,10.7354667 C98.0649095,10.7354667 98.4890021,10.8694519 98.85251,11.1374222 L98.85251,11.1374222 L99.6805002,8.74684444 C99.3977718,8.54939259 99.0443614,8.39777778 98.6202688,8.292 C98.1961763,8.18622222 97.748523,8.13333333 97.2773091,8.13333333 C95.9444468,8.13333333 94.9111419,8.51413333 94.1773945,9.27573333 C93.4436471,10.0373333 93.0767734,11.0669037 93.0767734,12.3644444 L93.0767734,12.3644444 L93.0767734,12.8721778 L91.400598,12.8721778 L91.400598,15.4108444 L93.0767734,15.4108444 L93.0767734,24 L96.2271751,24 Z M109.800381,10.9333333 C110.344154,10.9333333 110.786761,10.7509579 111.1282,10.3862069 C111.469639,10.0214559 111.640359,9.56015326 111.640359,9.00229885 C111.640359,8.48735632 111.469639,8.05823755 111.1282,7.71494253 C110.786761,7.37164751 110.344154,7.2 109.800381,7.2 C109.256607,7.2 108.814,7.37879949 108.472561,7.73639847 C108.131122,8.09399745 107.960402,8.53742018 107.960402,9.06666667 C107.960402,9.59591315 108.131122,10.0393359 108.472561,10.3969349 C108.814,10.7545338 109.256607,10.9333333 109.800381,10.9333333 Z M102.667099,24 L102.667099,15.4108444 L105.373213,15.4108444 L105.373213,12.8721778 L102.586319,12.8721778 L102.586319,12.3856 C102.586319,11.2855111 103.064265,10.7354667 104.020156,10.7354667 C104.504833,10.7354667 104.928926,10.8694519 105.292434,11.1374222 L105.292434,11.1374222 L106.120424,8.74684444 C105.837696,8.54939259 105.484285,8.39777778 105.060193,8.292 C104.6361,8.18622222 104.188447,8.13333333 103.717233,8.13333333 C102.384371,8.13333333 101.351066,8.51413333 100.617318,9.27573333 C99.883571,10.0373333 99.5166972,11.0669037 99.5166972,12.3644444 L99.5166972,12.3644444 L99.5166972,12.8721778 L97.8405219,12.8721778 L97.8405219,15.4108444 L99.5166972,15.4108444 L99.5166972,24 L102.667099,24 Z M111.640359,24 L111.640359,12.8 L107.960402,12.8 L107.960402,24 L111.640359,24 Z M117.83789,24 L117.83789,18.7897436 C117.83789,17.7641026 118.117009,16.9948718 118.675246,16.4820513 C119.233483,15.9692308 120.004731,15.7128205 120.988991,15.7128205 C121.121205,15.7128205 121.378288,15.7264957 121.760239,15.7538462 L121.760239,15.7538462 L121.760239,12.8 C120.849432,12.8 120.04513,12.9367521 119.347334,13.2102564 C118.649537,13.4837607 118.094973,13.8871795 117.683641,14.4205128 L117.683641,14.4205128 L117.683641,12.9641026 L114.400326,12.9641026 L114.400326,24 L117.83789,24 Z M125.995833,24 L125.995833,18.4615385 C125.995833,17.5042735 126.222541,16.782906 126.675957,16.2974359 C127.129373,15.8119658 127.73865,15.5692308 128.50379,15.5692308 C129.949053,15.5692308 130.671685,16.4376068 130.671685,18.174359 L130.671685,18.174359 L130.671685,24 L133.987289,24 L133.987289,18.4615385 C133.987289,17.5042735 134.213997,16.782906 134.667413,16.2974359 C135.120829,15.8119658 135.737192,15.5692308 136.5165,15.5692308 C137.210794,15.5692308 137.745683,15.7846154 138.121168,16.2153846 C138.496653,16.6461538 138.684396,17.2991453 138.684396,18.174359 L138.684396,18.174359 L138.684396,24 L142,24 L142,17.6820513 C142,16.0547009 141.578465,14.834188 140.735394,14.0205128 C139.892324,13.2068376 138.755242,12.8 137.324148,12.8 C136.473993,12.8 135.691142,12.957265 134.975595,13.2717949 C134.260047,13.5863248 133.668481,14.0307692 133.200896,14.6051282 C132.804157,14.017094 132.279895,13.5692308 131.628109,13.2615385 C130.976324,12.9538462 130.246608,12.8 129.43896,12.8 C128.702159,12.8 128.025578,12.9230769 127.409215,13.1692308 C126.792853,13.4153846 126.272133,13.7709402 125.847056,14.2358974 L125.847056,14.2358974 L125.847056,12.9641026 L122.680228,12.9641026 L122.680228,24 L125.995833,24 Z" id="SkillAffrm" fill="#FFFFFF" fill-rule="nonzero"></path>
                            <polyline id="Rectangle-Copy-5" stroke="#FFFFFF" stroke-width="4" transform="translate(12.764045, 11.600000) rotate(-270.000000) translate(-12.764045, -11.600000) " points="1.56404494 -0.765168539 6.22173395 3.61130584 23.9640449 3.61130584 23.9640449 23.9651685 6.22173395 23.9651685 6.22173395 14.2715783"></polyline>
                        </g>
                        <circle id="Oval-Copy-30" fill="#FFFFFF" cx="8" cy="16" r="3"></circle>
                    </g>
                </g>
            </g>
        </g>
    </g>
</svg>