<?xml version="1.0" encoding="UTF-8"?>
<svg width="125px" height="28px" viewBox="0 0 125 28" version="1.1" xmlns="http://www.w3.org/2000/svg" xmlns:xlink="http://www.w3.org/1999/xlink">
    <title>Group 89</title>
    <g id="Page-1" stroke="none" stroke-width="1" fill="none" fill-rule="evenodd">
        <g id="Group-89" fill="#111C20">
            <path d="M23.0620508,-5.32907052e-15 C23.0917623,0.116640886 23.0864105,0.229877506 23.1421427,0.285779129 C23.2478861,0.392028046 23.2154064,0.469430293 23.1471253,0.566183102 C22.4958715,1.4871265 21.8706383,2.4265246 21.1881966,3.32525069 C20.5413718,4.17703375 19.8891952,5.03437114 18.9984039,5.67688145 C18.954298,5.70877405 18.9242175,5.75912134 18.8575973,5.83544856 C21.2585076,6.47616716 23.4996033,7.44441193 25.8014139,8.25373125 C25.7979075,8.27541105 25.7942167,8.29691167 25.7907103,8.31859147 C25.5089125,8.34815483 25.2272992,8.37771819 24.9455013,8.40728154 C24.9438404,8.42699045 24.9423641,8.44669936 24.9407032,8.46640826 C25.0493993,8.52876007 25.1580954,8.59111188 25.2667915,8.65346369 C24.211572,8.53807701 23.1890167,8.18475009 22.1146047,8.3151872 C22.1109138,8.33435859 22.1070384,8.35352998 22.1033476,8.37270137 C22.317418,8.42770714 22.5314884,8.48253373 22.7455588,8.53753949 C22.7438979,8.55742757 22.7420525,8.57731565 22.7403916,8.59720372 C22.5087895,8.61368754 22.277372,8.63984663 22.0455855,8.64432593 C21.8150907,8.64880522 21.6215046,8.70739442 21.4434202,8.8616614 C21.1433525,9.12128144 20.7860764,9.2266345 20.3780508,9.18434993 C20.0630351,9.15156148 19.7432213,9.12199812 19.4285747,9.14027366 C19.1929127,9.15389072 18.9504226,9.21946762 18.7319232,9.3094119 C18.444589,9.4278445 18.4440354,9.4807002 18.6485095,9.70538173 C19.8716636,11.0491707 21.0608616,12.4169688 21.9760126,13.9870518 C22.1793795,14.3358995 22.4098742,14.670055 22.6257901,15.0122733 C22.6495962,15.0498994 22.6601152,15.0952298 22.6894576,15.1686903 C22.5504964,15.119418 22.4475211,15.082867 22.3445459,15.0464951 C22.3308896,15.0608288 22.3170489,15.0751626 22.3033927,15.0896755 C22.4504738,15.3858466 22.5977395,15.6820177 22.7448206,15.9781888 C22.6414763,15.989835 22.5767015,15.9645717 22.5141413,15.9348292 C22.1035321,15.7388152 21.6903393,15.5471013 21.2845283,15.3419495 C21.1498115,15.2740434 21.0219229,15.1830241 20.9115659,15.0812544 C19.9512018,14.1950704 19.0775731,13.2359634 18.3406911,12.1636197 C18.2982461,12.1019846 18.2426985,12.0487706 18.1930563,11.9912564 C18.1603921,12.0190281 18.1441523,12.0261949 18.1400923,12.0373036 C18.1258825,12.0777964 18.1041064,12.1199018 18.1059518,12.1605738 C18.1208998,12.4864875 18.1273588,12.8134761 18.162053,13.137598 C18.2249823,13.727611 18.3080269,14.3154739 18.3764925,14.9049493 C18.385166,14.9810974 18.3574845,15.061008 18.3386611,15.1969995 C18.089712,14.9438296 17.8861605,14.7367069 17.6826091,14.5295843 C17.6575112,14.537647 17.6325978,14.5458889 17.6074999,14.5541308 C17.7529202,15.5899234 17.8040387,16.6189074 17.4212956,17.6629419 C17.3890005,17.5803437 17.3664862,17.5425384 17.3596581,17.5022247 C17.2838107,17.0501741 17.2081479,16.5981235 17.1367296,16.1453562 C17.0588522,15.6499459 16.9842967,15.1539982 16.9108484,14.6580505 C16.890364,14.5191923 16.8167312,14.4593489 16.6707573,14.46992 C16.5594776,14.4779828 16.4469061,14.4715326 16.3348882,14.4715326 C16.3841614,14.3891135 16.4398935,14.3450372 16.5026382,14.3140405 C16.7318412,14.2006247 16.8137785,14.0302323 16.7569391,13.7827959 C16.7039752,13.5523809 16.6748173,13.3167699 16.6305269,13.0842048 C16.6117034,12.9844061 16.5810692,12.8867574 16.5393624,12.7240694 C16.4415544,12.8856824 16.3889595,12.9953356 16.3153266,13.0892216 C16.1604947,13.2870274 16.0167353,13.5011377 15.8272092,13.6629299 C15.6315931,13.8299181 15.5133008,14.0083733 15.4758385,14.2577805 C15.3540398,15.0685332 15.1207769,15.8395098 14.5850472,16.4970705 C14.5029254,16.5977651 14.4411033,16.7138685 14.3647023,16.8192216 C14.2392128,16.9924808 14.231831,17.1721901 14.2971594,17.3707126 C14.5562584,18.1601438 15.3010758,18.6566291 16.1878071,18.6279616 C16.2507364,18.6259907 16.3155112,18.6559124 16.3780714,18.6750838 L17.8605295,19.1356484 C18.1079613,19.2112058 18.3558851,19.2851042 18.6047727,19.3557577 C19.2968107,19.5521301 20.0056421,19.6945717 20.6917747,19.9074279 C20.9990395,20.0027473 21.3074116,20.170273 21.5478718,20.3784707 C22.1206946,20.8745976 22.4792626,21.506716 22.5768861,22.2554752 C22.6481198,22.8024869 22.6975775,23.3523654 22.7479579,23.9017063 L22.7639479,24.0812244 C19.7516691,26.5294167 15.8665044,28.003829 11.6256077,28.003829 C7.15262827,28.003829 3.07538103,26.3636269 0.000654580977,23.6706264 C0.0543130707,23.2815628 0.112509726,22.8931254 0.166113444,22.5045241 C0.221107393,22.1055083 0.428903323,21.7702778 0.738936328,21.5119119 C0.995082643,21.2985182 1.28500041,21.1238257 1.55627929,20.9272741 C1.6969014,20.8253253 1.82921906,20.7124471 1.96670393,20.6061982 C2.06746466,20.5284376 2.15899821,20.4203969 2.27433787,20.3827708 C2.82686098,20.2028823 3.38916488,20.0518404 3.94113436,19.871056 C4.23197484,19.7757365 4.51045092,19.6436869 4.79187969,19.5222084 C5.03436979,19.4173928 5.2637573,19.2749512 5.51510549,19.2005949 C6.0362562,19.0463279 6.51348558,18.815017 6.97152243,18.5337172 C7.15809586,18.4192263 7.32972128,18.246863 7.58992755,18.3054522 C7.61779361,18.3117232 7.66300676,18.2852058 7.68736649,18.2615551 C7.92099851,18.0357985 8.20999356,17.8401429 8.37017728,17.5722809 C8.62743085,17.1419101 8.72966793,16.6755257 8.39970423,16.1971368 C8.08376583,15.7389944 7.91306314,15.2190376 7.8577001,14.6661132 C7.83906121,14.4810287 7.81248696,14.2955858 7.77262557,14.1137264 C7.7519567,14.0191236 7.71633982,13.912158 7.6504578,13.8451477 C7.3204941,13.5099172 7.16879938,13.0971052 7.06471688,12.6588508 C6.99846578,12.3798802 6.93516737,12.1000137 6.85396825,11.8251641 C6.74840939,11.4686121 6.62790252,11.116181 6.51127105,10.7626749 C6.45812254,10.6021369 6.43523915,10.4659663 6.66960934,10.427086 C6.70485714,10.4211733 6.75136209,10.3231663 6.74693305,10.2713857 C6.71297705,9.87308659 6.64469597,9.47622091 6.63011704,9.0775635 C6.58305846,7.78376345 6.91671303,6.6064251 7.76505929,5.57744107 C8.31647513,4.90841331 8.98729059,4.4461499 9.85501392,4.26554465 C10.1364427,4.20695545 10.4171333,4.1454995 10.6989311,4.08852285 C11.3219498,3.96256502 11.9290978,3.93604759 12.4849427,4.32395468 C12.5338467,4.35799734 12.6846187,4.32055042 12.7409045,4.2684114 C13.1236476,3.91329276 13.5475439,3.61819669 14.0273569,3.40265294 C15.346658,2.80977323 16.6679892,2.22137281 17.9889512,1.63189737 C18.5510706,1.38087758 19.1417942,1.24345276 19.7579848,1.18504273 C20.8765027,1.07915216 21.9239713,0.767930625 22.8463195,0.119507636 C22.9085107,0.0757897 22.9801135,0.0449721388 23.0620508,-5.32907052e-15 Z" id="Combined-Shape"></path>
            <path d="M33,23.6733828 L38.9751821,8.40296925 L40.6009384,8.40296925 L46.4283245,23.6733828 L44.9503642,23.6733828 L43.1979257,18.8801697 L36.2726263,18.8801697 L34.4779602,23.6733828 L33,23.6733828 Z M36.7582418,17.650053 L42.7123102,17.650053 L39.735276,9.6330859 L36.7582418,17.650053 Z M49.6164959,23.6733828 L48.3496728,23.6733828 L48.3496728,12.6871686 L49.6164959,12.6871686 L49.6164959,14.7444327 L49.6587233,14.7444327 C50.0106204,13.8677934 50.4645607,13.256276 51.0205581,12.9098621 C51.5765554,12.5634483 52.3120093,12.3902439 53.2269416,12.3902439 L53.2269416,13.7688229 C52.5090716,13.7546836 51.9178934,13.8677966 51.4533893,14.1081654 C50.9888852,14.3485343 50.6193988,14.6737343 50.3449191,15.0837752 C50.0704394,15.4938161 49.8804179,15.9780813 49.7748487,16.5365854 C49.6692796,17.0950894 49.6164959,17.6783285 49.6164959,18.2863203 L49.6164959,23.6733828 Z M56.7951599,23.6733828 L55.5283368,23.6733828 L55.5283368,12.6871686 L56.7951599,12.6871686 L56.7951599,14.3414634 L56.8373873,14.3414634 C57.1611326,13.705193 57.6256298,13.2209278 58.2308927,12.8886532 C58.8361556,12.5563787 59.4977122,12.3902439 60.2155822,12.3902439 C60.7223139,12.3902439 61.1516219,12.4468004 61.503519,12.5599152 C61.855416,12.6730299 62.154524,12.8250256 62.400852,13.0159067 C62.6471799,13.2067878 62.8512771,13.4294791 63.0131498,13.6839873 C63.1750224,13.9384954 63.3122602,14.2142085 63.4248673,14.5111347 C63.7908402,13.7900282 64.2799698,13.256276 64.8922707,12.9098621 C65.5045715,12.5634483 66.2048362,12.3902439 66.9930856,12.3902439 C67.7391073,12.3902439 68.3338044,12.5139613 68.7771947,12.7613998 C69.220585,13.0088383 69.56192,13.3340383 69.80121,13.7370095 C70.0405,14.1399808 70.1988513,14.6030373 70.2762687,15.126193 C70.353686,15.6493487 70.3923941,16.1866356 70.3923941,16.73807 L70.3923941,23.6733828 L69.1255711,23.6733828 L69.1255711,16.0805938 C69.1255711,15.2887907 68.9601819,14.6666689 68.6293987,14.21421 C68.2986155,13.761751 67.6828048,13.5355249 66.7819484,13.5355249 C66.3174443,13.5355249 65.8705417,13.6380336 65.4412273,13.8430541 C65.0119129,14.0480745 64.6353887,14.3626702 64.3116434,14.7868505 C64.1708846,14.9706619 64.0547603,15.1862837 63.9632671,15.4337222 C63.8717738,15.6811607 63.7978766,15.9391998 63.741573,16.2078473 C63.6852695,16.4764948 63.6465614,16.7451383 63.6254476,17.0137858 C63.6043338,17.2824333 63.593777,17.5298681 63.593777,17.7560976 L63.593777,23.6733828 L62.3269539,23.6733828 L62.3269539,16.0805938 C62.3269539,15.2887907 62.1615648,14.6666689 61.8307816,14.21421 C61.4999983,13.761751 60.8841877,13.5355249 59.9833313,13.5355249 C59.5188272,13.5355249 59.0719246,13.6380336 58.6426102,13.8430541 C58.2132958,14.0480745 57.8367716,14.3626702 57.5130263,14.7868505 C57.3722675,14.9706619 57.2561432,15.1862837 57.16465,15.4337222 C57.0731567,15.6811607 56.9992594,15.9391998 56.9429559,16.2078473 C56.8866524,16.4764948 56.8479443,16.7451383 56.8268305,17.0137858 C56.8057166,17.2824333 56.7951599,17.5298681 56.7951599,17.7560976 L56.7951599,23.6733828 Z M73.4749969,23.6733828 L73.4749969,12.6871686 L74.74182,12.6871686 L74.74182,23.6733828 L73.4749969,23.6733828 Z M73.4116558,10.290562 L73.4116558,8.40296925 L74.8051611,8.40296925 L74.8051611,10.290562 L73.4116558,10.290562 Z M122.752956,22.2470437 L124.640549,22.2470437 L124.640549,23.6405491 L122.752956,23.6405491 L122.752956,22.2470437 Z M79.2390419,23.6733828 L77.9722188,23.6733828 L77.9722188,12.6871686 L79.2390419,12.6871686 L79.2390419,14.21421 C79.7457736,13.676915 80.2700924,13.2386019 80.8120138,12.8992577 C81.3539353,12.5599135 82.0049351,12.3902439 82.7650327,12.3902439 C83.4406751,12.3902439 84.0670424,12.5068917 84.6441536,12.7401909 C85.2212648,12.97349 85.7068754,13.37999 86.1010001,13.9597031 C86.3684419,14.3556047 86.5267932,14.7621047 86.5760588,15.1792153 C86.6253244,15.5963259 86.6499568,16.0311041 86.6499568,16.4835631 L86.6499568,23.6733828 L85.3831337,23.6733828 L85.3831337,16.504772 C85.3831337,15.515018 85.1649608,14.7727137 84.7286085,14.2778367 C84.2922561,13.7829597 83.5673591,13.5355249 82.5538955,13.5355249 C82.1597708,13.5355249 81.8008412,13.5956162 81.4770959,13.7158006 C81.1533506,13.835985 80.8612805,13.9950503 80.6008767,14.1930011 C80.3404728,14.3909519 80.118781,14.6171779 79.9357945,14.8716861 C79.7528081,15.1261943 79.6120514,15.3948378 79.5135202,15.6776246 C79.3868372,16.0311082 79.3094211,16.3704473 79.2812693,16.6956522 C79.2531175,17.0208571 79.2390419,17.3743353 79.2390419,17.7560976 L79.2390419,23.6733828 Z M97.62909,17.416755 C97.62909,16.87946 97.5551927,16.3739861 97.407396,15.9003181 C97.2595992,15.4266502 97.0414263,15.0166154 96.7528707,14.6702015 C96.4643151,14.3237876 96.1018666,14.0480745 95.6655143,13.8430541 C95.2291619,13.6380336 94.7294756,13.5355249 94.1664403,13.5355249 C93.603405,13.5355249 93.1072376,13.6415684 92.6779232,13.8536585 C92.2486088,14.0657487 91.8826413,14.3485313 91.5800099,14.7020148 C91.2773784,15.0554984 91.0345731,15.4655332 90.8515866,15.9321315 C90.6686001,16.3987298 90.5489569,16.8935994 90.4926534,17.416755 L97.62909,17.416755 Z M90.4926534,18.4772004 C90.4926534,19.0710528 90.5700696,19.6330832 90.7249043,20.1633086 C90.879739,20.6935339 91.1084687,21.1530557 91.4111001,21.5418876 C91.7137316,21.9307195 92.0972936,22.2417804 92.5617978,22.4750795 C93.0263019,22.7083787 93.5611774,22.8250265 94.1664403,22.8250265 C94.9969174,22.8250265 95.7077387,22.60587 96.2989258,22.1675504 C96.8901128,21.7292308 97.2842316,21.107109 97.481294,20.3011665 L98.8959131,20.3011665 C98.7410784,20.8243222 98.5369811,21.3085874 98.2836153,21.7539767 C98.0302494,22.199366 97.7135468,22.588192 97.333498,22.9204666 C96.9534491,23.2527411 96.5030277,23.5107803 95.98222,23.6945917 C95.4614124,23.8784032 94.8561585,23.9703075 94.1664403,23.9703075 C93.2937356,23.9703075 92.5406872,23.8218467 91.9072725,23.5249205 C91.2738578,23.2279943 90.753058,22.8214943 90.3448574,22.3054083 C89.9366568,21.7893223 89.6340299,21.1813397 89.4369675,20.4814422 C89.2399052,19.7815448 89.1413755,19.0286361 89.1413755,18.2226935 C89.1413755,17.416751 89.2574998,16.6603075 89.4897518,15.9533404 C89.7220039,15.2463733 90.0527821,14.6277863 90.4820966,14.097561 C90.911411,13.5673356 91.4357297,13.1502313 92.0550685,12.8462354 C92.6744073,12.5422396 93.3781909,12.3902439 94.1664403,12.3902439 C95.6725597,12.3902439 96.8549161,12.9098569 97.7135449,13.9490986 C98.5721737,14.9883403 98.9944438,16.4976925 98.9803679,18.4772004 L90.4926534,18.4772004 Z M113.971108,17.0137858 L113.971108,15.7836691 L120.474133,15.7836691 L120.474133,23.6733828 L119.249537,23.6733828 L119.249537,21.0646872 C118.982095,21.5171461 118.675949,21.9307157 118.33109,22.3054083 C117.986231,22.6801008 117.588593,22.9982313 117.138165,23.2598091 C116.687737,23.521387 116.166937,23.7228696 115.57575,23.864263 C114.984563,24.0056564 114.315969,24.0763521 113.569947,24.0763521 C112.612787,24.0763521 111.72602,23.9066825 110.909618,23.5673383 C110.093217,23.2279941 109.389434,22.7225201 108.798247,22.0509014 C108.20706,21.3792826 107.746081,20.5344696 107.415298,19.5164369 C107.084515,18.4984042 106.919126,17.3107173 106.919126,15.9533404 C106.919126,14.8363323 107.059883,13.7935715 107.3414,12.8250265 C107.622918,11.8564815 108.055745,11.0152033 108.639894,10.3011665 C109.224043,9.58712969 109.955978,9.02509926 110.83572,8.61505832 C111.715463,8.20501739 112.753544,8 113.949994,8 C114.752319,8 115.501849,8.09897391 116.198605,8.29692471 C116.895361,8.4948755 117.521728,8.79533203 118.077726,9.19830329 C118.633723,9.60127455 119.101739,10.1032137 119.481788,10.7041357 C119.861837,11.3050578 120.136312,12.0155491 120.305223,12.835631 L118.827263,12.835631 C118.70058,12.2700573 118.485926,11.7610486 118.183294,11.3085896 C117.880663,10.8561306 117.518214,10.4779089 117.095938,10.173913 C116.673661,9.86991718 116.202126,9.63662153 115.681319,9.47401909 C115.160511,9.31141665 114.618598,9.23011665 114.055562,9.23011665 C113.056175,9.23011665 112.197559,9.40685578 111.479689,9.76033934 C110.761819,10.1138229 110.170641,10.6122273 109.706137,11.2555673 C109.241632,11.8989074 108.900297,12.66949 108.682121,13.5673383 C108.463945,14.4651865 108.354859,15.4513909 108.354859,16.5259809 C108.354859,17.3743415 108.478021,18.1802719 108.724349,18.9437964 C108.970677,19.7073209 109.329606,20.3789296 109.801148,20.9586426 C110.27269,21.5383557 110.849793,21.9978774 111.532473,22.3372216 C112.215153,22.6765659 112.992834,22.8462354 113.865539,22.8462354 C114.27374,22.8462354 114.69601,22.8002832 115.132362,22.7083775 C115.568714,22.6164718 115.990985,22.4644761 116.399185,22.252386 C116.807386,22.0402959 117.187429,21.7645828 117.539326,21.4252386 C117.891223,21.0858944 118.19385,20.66879 118.447216,20.173913 C118.686506,19.6931754 118.851895,19.1912363 118.943388,18.6680806 C119.034881,18.1449249 119.087665,17.5934988 119.101741,17.0137858 L113.971108,17.0137858 Z" id="Armine-Gyozalyan"></path>
        </g>
    </g>
</svg>